<?xml version="1.0" encoding="UTF-8" standalone="no"?><!DOCTYPE svg PUBLIC "-//W3C//DTD SVG 1.1//EN" "http://www.w3.org/Graphics/SVG/1.1/DTD/svg11.dtd"><svg width="100%" height="100%" viewBox="0 0 224 163" version="1.1" xmlns="http://www.w3.org/2000/svg" xmlns:xlink="http://www.w3.org/1999/xlink" xml:space="preserve" xmlns:serif="http://www.serif.com/" style="fill-rule:evenodd;clip-rule:evenodd;stroke-linecap:round;stroke-linejoin:round;stroke-miterlimit:1.5;"><g><path d="M61.699,123.691l-0.289,-13.299l101.484,-0l0,14.167l-101.195,-0.868Z" style="fill:#55524e;stroke:#626262;stroke-width:8.07px;"/><path d="M4.171,126.027l214.913,0" style="fill:none;stroke:#916940;stroke-width:8.07px;"/><path d="M4.171,126.027l-0.135,32.881l214.678,-0l0,-33.25l-214.543,0.369Z" style="fill:#c9945a;stroke:#7d561c;stroke-width:8.07px;"/><path d="M108.755,105.944l-23.241,-7.402l-0,-17.764l17.764,-6.07l5.181,-13.323l25.462,4.293l4.145,13.471l11.399,9.031l-19.846,17.245l-20.864,0.519Z" style="fill:#85b54b;stroke:#506553;stroke-width:8.07px;"/><path d="M83.957,40.322l-18.158,-18.158" style="fill:none;stroke:#506553;stroke-width:8.07px;"/><path d="M118.031,37.806l-0,-33.77" style="fill:none;stroke:#506553;stroke-width:8.07px;"/><path d="M146.004,42.505l18.273,-18.273" style="fill:none;stroke:#506553;stroke-width:8.07px;"/><path d="M171.999,83.972l30.301,-0" style="fill:none;stroke:#506553;stroke-width:8.07px;"/><path d="M65.958,79.412l-35.158,-0" style="fill:none;stroke:#506553;stroke-width:8.07px;"/></g></svg>