<?xml version="1.0" encoding="UTF-8" standalone="no"?><!DOCTYPE svg PUBLIC "-//W3C//DTD SVG 1.1//EN" "http://www.w3.org/Graphics/SVG/1.1/DTD/svg11.dtd"><svg width="100%" height="100%" viewBox="0 0 238 421" version="1.1" xmlns="http://www.w3.org/2000/svg" xmlns:xlink="http://www.w3.org/1999/xlink" xml:space="preserve" xmlns:serif="http://www.serif.com/" style="fill-rule:evenodd;clip-rule:evenodd;stroke-linecap:round;stroke-linejoin:round;stroke-miterlimit:1.5;"><g><path d="M46.135,131.881l-0.407,-116.489" style="fill:none;stroke:#696969;stroke-width:30.78px;"/><path d="M49.726,149.533l-34.334,-111.315" style="fill:none;stroke:#9c9b9a;stroke-width:30.78px;"/><path d="M58.655,147.868l17.199,-115.213" style="fill:none;stroke:#9c9b9a;stroke-width:30.78px;"/><path d="M81.914,131.881l-0.406,-116.489" style="fill:none;stroke:#696969;stroke-width:30.78px;"/><path d="M85.506,149.533l-34.334,-111.315" style="fill:none;stroke:#9c9b9a;stroke-width:30.78px;"/><path d="M94.434,147.868l17.2,-115.213" style="fill:none;stroke:#9c9b9a;stroke-width:30.78px;"/><path d="M120.585,33.044l-0.406,116.489" style="fill:none;stroke:#696969;stroke-width:30.78px;"/><path d="M94.049,34.223l11.176,115.952" style="fill:none;stroke:#9c9b9a;stroke-width:30.78px;"/><path d="M133.105,147.868l17.2,-115.213" style="fill:none;stroke:#9c9b9a;stroke-width:30.78px;"/><path d="M156.365,131.881l-0.407,-116.489" style="fill:none;stroke:#696969;stroke-width:30.78px;"/><path d="M168.885,147.868l17.2,-115.213" style="fill:none;stroke:#9c9b9a;stroke-width:30.78px;"/><path d="M191.845,131.881l0.406,-116.489" style="fill:none;stroke:#696969;stroke-width:30.78px;"/><path d="M188.253,149.533l34.334,-111.315" style="fill:none;stroke:#9c9b9a;stroke-width:30.78px;"/><path d="M179.324,147.868l-17.199,-115.213" style="fill:none;stroke:#9c9b9a;stroke-width:30.78px;"/><path d="M156.065,131.881l0.407,-116.489" style="fill:none;stroke:#696969;stroke-width:30.78px;"/><path d="M152.473,149.533l34.334,-111.315" style="fill:none;stroke:#9c9b9a;stroke-width:30.78px;"/><path d="M140.538,35.561l-17.2,115.213" style="fill:none;stroke:#9c9b9a;stroke-width:30.78px;"/><path d="M123.767,220.222l0,163.235" style="fill:none;stroke:#504a41;stroke-width:73.6px;"/><path d="M60.579,213.839l125.409,0l18.435,-56.397l-162.276,0.378l18.432,56.019Z" style="fill:#606060;stroke:#504a41;stroke-width:22.34px;"/></g></svg>