<?xml version="1.0" encoding="UTF-8" standalone="no"?><!DOCTYPE svg PUBLIC "-//W3C//DTD SVG 1.1//EN" "http://www.w3.org/Graphics/SVG/1.1/DTD/svg11.dtd"><svg width="100%" height="100%" viewBox="0 0 800 600" version="1.1" xmlns="http://www.w3.org/2000/svg" xmlns:xlink="http://www.w3.org/1999/xlink" xml:space="preserve" xmlns:serif="http://www.serif.com/" style="fill-rule:evenodd;clip-rule:evenodd;stroke-linejoin:round;stroke-miterlimit:2;"><g><path d="M-102.421,481.991c-0,-0 151.102,-170.956 313.234,-165.441c162.132,5.514 208.456,159.926 286.764,155.514c78.309,-4.412 163.235,88.235 311.029,71.691" style="fill:none;"/><path d="M270.725,432.976c-0,0 52.941,-46.323 118.014,-39.706c37.8,3.844 84.5,34.873 131.362,77.863c34.941,32.053 111.265,2.913 134.245,-18.052c25.222,-23.009 129.392,-60.312 167.159,-54.916c71.344,-6.491 162.12,155.538 178.262,176.649l34.191,-3.971l-189.705,152.206l-327.573,-11.03l-197.426,-38.602l-40.809,-144.485l-7.72,-95.956" style="fill:#756445;"/><clipPath id="_clip1"><path d="M270.725,432.976c-0,0 52.941,-46.323 118.014,-39.706c37.8,3.844 84.5,34.873 131.362,77.863c34.941,32.053 111.265,2.913 134.245,-18.052c25.222,-23.009 129.392,-60.312 167.159,-54.916c71.344,-6.491 162.12,155.538 178.262,176.649l34.191,-3.971l-189.705,152.206l-327.573,-11.03l-197.426,-38.602l-40.809,-144.485l-7.72,-95.956"/></clipPath><g clip-path="url(#_clip1)"><path d="M363.328,393.27c-0,0 -23.617,14.97 -17.441,40.559c6.177,25.588 38.824,23.823 25.589,62.646c-13.236,38.824 23.823,65.294 23.823,65.294l56.47,6.177l57.353,7.059l21.177,-15.883l47.647,-23.823l-27.353,-88.694c-0,-0 -77.224,-10.242 -74.273,-34.467c6.312,-51.821 -109.394,-24.265 -112.992,-18.868Z" style="fill:#68583a;"/><path d="M795.503,400.329c0,-0 -23.617,14.97 -17.44,40.558c6.176,25.589 38.823,23.824 25.588,62.647c-13.235,38.824 23.823,65.294 23.823,65.294l56.471,6.177l57.353,7.058l21.176,-15.882l10.588,-29.117l35.294,-90c0,-0 -82.941,-69.706 -98.823,-88.235c-15.882,-18.53 -114.03,41.5 -114.03,41.5Z" style="fill:#68583a;"/></g><path d="M-141.024,543.755c-0,0 125.735,-164.338 263.602,-163.235c137.867,1.103 177.573,100.368 243.749,108.088c66.177,7.721 174.265,31.985 268.015,31.985c93.749,0 185.293,-23.161 237.131,-6.617c51.839,16.544 5.515,169.852 5.515,169.852c0,0 -474.264,15.441 -499.631,16.544c-25.368,1.103 -494.117,-3.308 -494.117,-3.308l0,-123.53l-24.264,-29.779Z" style="fill:#a3741e;"/><clipPath id="_clip2"><path d="M-141.024,543.755c-0,0 125.735,-164.338 263.602,-163.235c137.867,1.103 177.573,100.368 243.749,108.088c66.177,7.721 174.265,31.985 268.015,31.985c93.749,0 185.293,-23.161 237.131,-6.617c51.839,16.544 5.515,169.852 5.515,169.852c0,0 -474.264,15.441 -499.631,16.544c-25.368,1.103 -494.117,-3.308 -494.117,-3.308l0,-123.53l-24.264,-29.779Z"/></clipPath><g clip-path="url(#_clip2)"><path d="M122.578,380.52c0,0 -43.015,9.927 -25.368,60.662c17.647,50.735 77.206,97.058 77.206,97.058c56.921,62.763 58.749,78.344 58.279,91.368c18.016,45.624 87.256,105.986 129.794,93.132l122.382,16.853l87.706,-30.397l377.205,-2.206l39.706,-174.264c-0,-0 -66.177,-50.735 -168.75,-83.824c-102.573,-33.088 -254.779,-49.632 -320.955,-62.867c-66.176,-13.235 -247.058,-27.574 -247.058,-27.574l-130.147,22.059" style="fill:#6b4808;"/></g></g></svg>