<?xml version="1.0" encoding="UTF-8" standalone="no"?><!DOCTYPE svg PUBLIC "-//W3C//DTD SVG 1.1//EN" "http://www.w3.org/Graphics/SVG/1.1/DTD/svg11.dtd"><svg width="100%" height="100%" viewBox="0 0 473 506" version="1.1" xmlns="http://www.w3.org/2000/svg" xmlns:xlink="http://www.w3.org/1999/xlink" xml:space="preserve" xmlns:serif="http://www.serif.com/" style="fill-rule:evenodd;clip-rule:evenodd;stroke-linejoin:round;stroke-miterlimit:2;"><g id="Skull"><path d="M183.261,5.658c88.691,-19.88 126.352,18.352 145.411,26.823c19.059,8.471 29.647,26.824 35.294,41.647c5.648,14.824 24,42.353 36,49.412c12,7.059 8.471,42.353 12,55.059c3.53,12.706 25.412,44.47 38.824,56.47c13.412,12 12,41.647 -0,47.294c-12,5.647 -14.824,0 -14.118,13.412c0.706,13.412 24.706,11.294 17.647,55.765c0,-0 -111.43,38.361 -172.941,25.412c-13.412,-2.824 -3.491,-12.205 -13.412,-26.118c-8.669,-12.158 -11.999,9.176 -23.294,-4.235c-11.294,-13.412 4.236,-38.824 -10.588,-38.824c-14.823,0 -80.47,8.471 -92.47,29.647c-12,21.177 59.294,40.235 59.294,54.353c-0,14.118 -52.236,28.235 -92.471,26.118c-40.235,-2.118 -82.588,-100.236 -91.765,-134.118c-9.176,-33.882 -34.588,-89.647 4.236,-148.941c38.823,-59.294 80.47,-110.824 162.353,-129.176Z" style="fill:#dbb573;"/><clipPath id="_clip1"><path d="M183.261,5.658c88.691,-19.88 126.352,18.352 145.411,26.823c19.059,8.471 29.647,26.824 35.294,41.647c5.648,14.824 24,42.353 36,49.412c12,7.059 8.471,42.353 12,55.059c3.53,12.706 25.412,44.47 38.824,56.47c13.412,12 12,41.647 -0,47.294c-12,5.647 -14.824,0 -14.118,13.412c0.706,13.412 24.706,11.294 17.647,55.765c0,-0 -111.43,38.361 -172.941,25.412c-13.412,-2.824 -3.491,-12.205 -13.412,-26.118c-8.669,-12.158 -11.999,9.176 -23.294,-4.235c-11.294,-13.412 4.236,-38.824 -10.588,-38.824c-14.823,0 -80.47,8.471 -92.47,29.647c-12,21.177 59.294,40.235 59.294,54.353c-0,14.118 -52.236,28.235 -92.471,26.118c-40.235,-2.118 -82.588,-100.236 -91.765,-134.118c-9.176,-33.882 -34.588,-89.647 4.236,-148.941c38.823,-59.294 80.47,-110.824 162.353,-129.176Z"/></clipPath><g clip-path="url(#_clip1)"><path d="M88.538,52.623c-25.618,24.791 -64.261,196.944 107.676,199.68c87.333,1.39 42.321,105.087 50.823,91.483l-111.247,127.623c-25.418,24.571 -189.746,-188.701 -172.8,-220.8c6.205,-11.754 24.282,-146.258 32.753,-152.47c8.471,-6.212 92.795,-45.516 92.795,-45.516" style="fill:#8c7751;"/><path d="M26.151,127.793c0,-0 -4.411,143.823 30,183.529c34.412,39.706 142.059,91.765 142.059,91.765l-20.294,84.705l-190.588,-82.058c-0,-0 -30,-99.706 -30,-112.941c-0,-13.236 2.647,-100.588 7.059,-112.059c4.412,-11.471 30.882,-47.647 37.941,-58.235c7.059,-10.589 23.823,5.294 23.823,5.294Z" style="fill:#5a4f3b;"/><path d="M453.155,303.16c-68.587,101.355 -198.075,10.998 -212.757,-4.924c-156.446,-169.662 -54.918,332.698 65.417,142.839l163.379,-83.364l37.587,-32.889l-33.611,-36.864l-8.674,-6.866l314.159,110.192" style="fill:#8c7751;"/></g><path d="M298.97,124.923c-11.334,-2.712 -86.143,-4.103 -76.067,70.024c6.325,46.532 48.339,37.948 66.861,36.141c18.522,-1.807 46.532,-20.329 44.273,-43.821c-2.259,-23.492 -23.732,-59.632 -35.067,-62.344Z"/><clipPath id="_clip2"><path d="M298.97,124.923c-11.334,-2.712 -86.143,-4.103 -76.067,70.024c6.325,46.532 48.339,37.948 66.861,36.141c18.522,-1.807 46.532,-20.329 44.273,-43.821c-2.259,-23.492 -23.732,-59.632 -35.067,-62.344Z"/></clipPath><g clip-path="url(#_clip2)"><path d="M227.89,136.323c0,-0 59.928,-12.752 70.77,-5.162c10.842,7.589 42.43,62.669 27.612,75.679c-14.818,13.011 -49.73,31.299 -49.73,31.299l-29.564,2.746l32.527,8.674l39.394,2.892l20.239,-36.142c0,0 4.337,-16.625 6.506,-22.769c2.168,-6.144 4.698,-11.203 2.891,-22.046c-1.807,-10.842 -2.891,-30.358 -3.976,-34.334c-1.084,-3.975 -10.481,-20.239 -12.288,-23.853c-1.807,-3.614 -29.274,-15.541 -29.274,-15.541l-34.696,5.422c0,-0 -33.611,18.432 -37.586,18.432c-3.976,-0 -20.962,12.649 -20.962,12.649l0.723,16.625l17.414,-14.571Z" style="fill:#9b7839;"/></g><path d="M400.446,129.441c-3.162,-6.776 -33.882,-14.908 -35.237,11.294c-1.355,26.203 7.228,32.075 23.04,43.37c15.812,11.294 11.746,33.882 29.816,36.141c18.071,2.259 -9.606,-19.377 -10.842,-32.979c-1.355,-14.908 -3.614,-51.049 -6.777,-57.826Z"/><clipPath id="_clip3"><path d="M400.446,129.441c-3.162,-6.776 -33.882,-14.908 -35.237,11.294c-1.355,26.203 7.228,32.075 23.04,43.37c15.812,11.294 11.746,33.882 29.816,36.141c18.071,2.259 -9.606,-19.377 -10.842,-32.979c-1.355,-14.908 -3.614,-51.049 -6.777,-57.826Z"/></clipPath><g clip-path="url(#_clip3)"><path d="M376.727,123.656c-0,0 15.767,-4.091 18.659,12.968c2.891,17.058 1.445,44.526 6.939,52.91c5.493,8.385 17.348,21.685 17.058,26.311c-0.289,4.626 -3.18,5.783 -3.18,5.783l15.035,9.541l2.313,-6.361c-0,0 -0.868,-13.3 -2.892,-19.661c-2.023,-6.361 -4.626,-15.034 -6.071,-21.973c-1.446,-6.94 1.445,-23.709 0.578,-31.516c-0.867,-7.806 -2.602,-13.01 -5.493,-18.215c-2.892,-5.204 -3.47,-8.963 -9.253,-14.456c-5.782,-5.494 -2.313,-6.361 -11.565,-7.228c-9.252,-0.868 -10.698,-1.446 -17.637,-0.579c-6.939,0.868 -8.384,1.446 -9.252,4.626c-0.867,3.181 4.761,7.85 4.761,7.85Z" style="fill:#9b7839;"/></g><path d="M380.117,186.815c13.636,-3.223 43.431,76.739 28.461,91.708c-6.776,6.777 -7.228,-9.035 -16.715,-7.68c-13.454,1.922 -4.949,10.955 -17.167,10.391c-29.365,-1.355 -19.426,-88.546 5.421,-94.419Z"/><clipPath id="_clip4"><path d="M380.117,186.815c13.636,-3.223 43.431,76.739 28.461,91.708c-6.776,6.777 -7.228,-9.035 -16.715,-7.68c-13.454,1.922 -4.949,10.955 -17.167,10.391c-29.365,-1.355 -19.426,-88.546 5.421,-94.419Z"/></clipPath><g clip-path="url(#_clip4)"><path d="M368.896,195.982c-0,-0 10.663,-7.347 14.421,-1.854c3.759,5.494 27.7,36.564 24.576,73.15c-2.024,23.709 -16.48,3.759 -16.48,3.759c-0,-0 -2.891,-3.47 -10.987,2.313c-8.096,5.782 -6.072,14.167 -6.072,14.167l18.794,4.915l18.793,-6.361l10.12,-29.491l-2.892,-26.021l-11.565,-24.287l-13.011,-24.576l-18.215,-3.47l-11.854,9.542l4.372,8.214Z" style="fill:#9b7839;"/></g><path d="M139.037,344.382c5.421,-2.259 68.324,-10.363 90.353,-18.522c12.198,-4.518 12.795,50.307 39.304,71.83c29.053,23.59 142.46,23.776 179.802,-14.908c10.104,-10.467 46.08,74.541 5.421,99.388c-40.659,24.847 -230.396,37.001 -246.663,-0.903c-12.318,-28.701 -73.638,-134.626 -68.217,-136.885Z" style="fill:#8c7751;"/><clipPath id="_clip5"><path d="M139.037,344.382c5.421,-2.259 68.324,-10.363 90.353,-18.522c12.198,-4.518 12.795,50.307 39.304,71.83c29.053,23.59 142.46,23.776 179.802,-14.908c10.104,-10.467 46.08,74.541 5.421,99.388c-40.659,24.847 -230.396,37.001 -246.663,-0.903c-12.318,-28.701 -73.638,-134.626 -68.217,-136.885Z"/></clipPath><g clip-path="url(#_clip5)"><path d="M97.861,344.965c0,-0 79.624,51.388 96.565,57.6c16.941,6.211 15.247,23.717 36.141,51.388c20.894,27.67 134.964,7.906 134.964,7.906l65.506,-18.636l46.871,32.753l-37.271,44.047l-167.717,-1.694l-88.094,-6.776l-55.906,-15.247l-7.341,-36.706l-38.4,-78.494l14.682,-36.141" style="fill:#5a4f3b;"/></g></g></svg>