<?xml version="1.0" encoding="UTF-8" standalone="no"?><!DOCTYPE svg PUBLIC "-//W3C//DTD SVG 1.1//EN" "http://www.w3.org/Graphics/SVG/1.1/DTD/svg11.dtd"><svg width="100%" height="100%" viewBox="0 0 613 576" version="1.1" xmlns="http://www.w3.org/2000/svg" xmlns:xlink="http://www.w3.org/1999/xlink" xml:space="preserve" xmlns:serif="http://www.serif.com/" style="fill-rule:evenodd;clip-rule:evenodd;stroke-linecap:round;stroke-linejoin:round;stroke-miterlimit:1.5;"><g><path d="M515.254,58.865l-27.48,-1.095l-11.474,20.754l-9.464,-21.589l-41.447,-1.651l-34.485,13.778l-30.748,-18.071l-30.24,21.458l-49.321,-17.67l-39.58,9.644l-33.736,-22.323l-46.774,16.765l-24.69,20.294l-7.876,-20.294l-56.509,-0l26.471,37.958l-16.413,31.651l29.721,33.53l-42.278,15.961l0.374,48.557l30.977,11.479l-30.733,20.259l0.51,66.231l18.597,8.802l-18.38,19.382l0.442,57.468l17.816,21.042l-17.572,10.649l0.386,50.237l22.141,-6.147l3.511,16.764l36.167,0l12.366,-36.176l8.861,36.176l124.4,0l7.005,-20.294l16.806,20.294l94.741,0l7.377,-17.506l13.48,17.506l97.051,0l-0,-15.769l-19.765,-13.539l19.765,-5.046l-0,-49.764l-26.542,-13.532l15.247,-38.379l16.463,-47.947l-0.933,-46.903l-24.597,-23.172l28.328,-21.712l-19.579,-50.565l26.315,-37.775l-14.702,-79.72Z" style="fill:#66645f;stroke:#4a4a4a;stroke-width:8.78px;"/><g><path d="M158.452,260.07c-0,0 5.01,0.904 24.657,-7.637c11.236,-4.884 27.381,-13.108 50.712,-26.499c9.818,-6.009 19.394,-9.628 28.469,-12.017c10.771,-2.835 20.922,-3.67 30.432,-3.166c29.737,1.575 53.195,14.995 63.528,16.239c5.48,0.613 10.283,0.809 14.335,0.723c9.216,-0.195 14.465,-1.575 14.465,-1.575c1.522,-0.304 2.51,-1.786 2.206,-3.308c-0.304,-1.522 -1.787,-2.51 -3.308,-2.206c-0,0 -4.838,0.595 -13.106,-0.167c-3.745,-0.344 -8.159,-0.985 -13.153,-2.097c-6.994,-1.53 -19.483,-9.74 -36.314,-15.79c-12.076,-4.341 -26.202,-7.693 -41.762,-7.224c-9.028,0.271 -18.545,1.883 -28.31,5.326c-8.286,2.921 -16.715,7.267 -25.302,13.098c-17.122,12.237 -30.155,20.706 -39.998,26.744c-21.943,13.459 -27.221,13.943 -27.221,13.943c-1.549,-0.091 -2.881,1.093 -2.972,2.642c-0.091,1.549 1.092,2.88 2.642,2.971l-0,0Z" style="fill:#ccbe28;"/><path d="M160.602,285.885c0,-0 41.191,-18.188 81.133,-30.089c11.413,-3.4 22.684,-6.323 32.87,-8.083c7.873,-1.36 15.03,-2.095 20.984,-1.545c11.889,0.757 27.207,5.804 43.396,11.419c23.843,8.27 49.319,18.027 68.284,21.026c14.707,2.325 25.762,0.419 30.434,-7.853c0.826,-1.314 0.43,-3.051 -0.884,-3.877c-1.314,-0.825 -3.051,-0.429 -3.877,0.884c-4.17,5.99 -12.903,5.375 -24.004,2.618c-18.239,-4.531 -42.161,-16.392 -64.965,-25.886c-17.325,-7.212 -34.058,-12.883 -47.035,-14.257c-7.18,-0.554 -15.831,0.159 -25.253,2.117c-10.734,2.229 -22.562,5.883 -34.371,10.363c-39.617,15.031 -79.271,38.156 -79.271,38.156c-1.382,0.706 -1.93,2.401 -1.224,3.783c0.706,1.382 2.401,1.93 3.783,1.224Z" style="fill:#ccbe28;"/><path d="M229.45,252.902c0,0 11.302,33.51 33.881,67.252c9.184,13.723 20.25,27.431 33.085,38.895c11.061,9.879 23.463,18.111 36.949,23.31c13.668,5.268 28.462,7.351 44.082,5.398c35.293,-4.872 47.296,-17.818 48.644,-29.82c1.594,-14.193 -11.77,-29.143 -23.368,-33.307c-8.353,-2.999 -15.491,-1.222 -16.751,7.64c-0.289,1.525 0.715,2.997 2.24,3.286c1.524,0.288 2.996,-0.716 3.285,-2.24c0.986,-4.163 4.688,-3.896 8.539,-2.119c8.203,3.783 17.924,14.928 15.942,25.209c-0.65,3.372 -2.948,6.412 -7,9.114c-6.425,4.285 -16.932,7.212 -32.957,8.309c-13.199,1.054 -25.413,-1.593 -36.835,-6.211c-11.801,-4.772 -22.707,-11.844 -32.748,-20.195c-12.39,-10.305 -23.483,-22.411 -33.023,-34.579c-24.326,-31.028 -38.741,-62.023 -38.741,-62.023c-0.574,-1.441 -2.211,-2.145 -3.652,-1.571c-1.442,0.574 -2.146,2.211 -1.572,3.652Z" style="fill:#ccbe28;"/><path d="M163.87,286.002c0,0 14.321,-3.001 35.074,1.512c6.704,1.459 13.981,3.86 22.003,7.051c6.63,2.636 13.776,5.616 21.238,9.879c9.392,5.364 19.373,11.934 29.573,21.227c1.037,1.155 2.816,1.251 3.971,0.215c1.154,-1.037 1.251,-2.816 0.214,-3.971c-8.657,-11.851 -17.369,-21.178 -26.348,-28.369c-7.592,-6.081 -15.184,-10.7 -22.648,-13.783c-9.244,-3.818 -18.163,-5.459 -26.096,-5.954c-23.929,-1.493 -39.017,6.952 -39.017,6.952c-1.447,0.562 -2.165,2.192 -1.603,3.639c0.562,1.446 2.193,2.164 3.639,1.602Z" style="fill:#ccbe28;"/><path d="M231.34,251.434c0,0 -1.347,8.95 1.465,20.331c2.145,8.683 6.839,18.549 16.055,26.935c6.684,6.081 15.859,11.294 28.257,14.274c5.986,1.439 12.78,2.135 20.392,2.323c22.781,-0.666 39.654,-2.813 52.033,-5.816c26.101,-6.333 32.753,-14.98 32.753,-14.98c1.073,-1.121 1.033,-2.902 -0.088,-3.975c-1.121,-1.073 -2.902,-1.033 -3.975,0.088c-0,0 -7.09,5.662 -30.56,8.338c-12.046,1.373 -28.193,2.059 -49.83,0.514c-6.503,-0.113 -12.268,-0.863 -17.435,-1.837c-9.915,-1.87 -17.505,-4.965 -23.337,-9.103c-19.584,-13.894 -20.118,-36.727 -20.118,-36.727c0.1,-1.549 -1.075,-2.887 -2.624,-2.988c-1.548,-0.101 -2.887,1.075 -2.988,2.623l0,0Z" style="fill:#ccbe28;"/><path d="M302.737,310.19c0,0 11.797,1.958 26.536,-2.078c5.46,-1.495 11.269,-3.9 16.567,-7.686c4.813,-3.44 9.122,-8.026 12.658,-13.542c4.479,-6.988 7.647,-15.223 8.94,-25.318c0.426,-1.493 -0.439,-3.05 -1.931,-3.476c-1.492,-0.427 -3.05,0.439 -3.476,1.931c-2.422,5.169 -5.413,9.261 -8.535,13.088c-3.343,4.098 -7.087,7.203 -10.834,10.094c-2.38,1.835 -4.829,3.39 -7.184,4.955c-2.557,1.699 -4.994,3.363 -7.442,4.809c-3.422,2.022 -6.587,3.852 -9.648,5.319c-9.141,4.379 -15.892,6.286 -15.892,6.286c-1.55,0.067 -2.755,1.379 -2.688,2.93c0.066,1.55 1.379,2.755 2.929,2.688Z" style="fill:#ccbe28;"/><path d="M258.236,244.143c0,0 -0.514,5.677 0.913,14.04c0.809,4.741 3.101,9.072 6.185,13.951c3.446,5.453 9.1,9.382 16.256,12.371c3.811,1.592 8.336,1.969 13.262,2.145c11.258,-2.148 19.917,-4.857 25.849,-10.079c12.318,-10.843 14.532,-22.505 14.532,-22.505c1.352,-2.808 0.17,-6.185 -2.638,-7.536c-2.807,-1.352 -6.184,-0.17 -7.536,2.637l-12.337,5.654c-4.605,1.64 -10.269,1.423 -17.87,-0.12c-2.579,0.186 -4.765,0.199 -6.695,-0.377c-2.854,-0.853 -5.55,-0.705 -7.597,-2.181c-6.939,-5.005 -11.21,-9.994 -11.21,-9.994c-0.55,-3.067 -3.487,-5.111 -6.554,-4.56c-3.067,0.55 -5.11,3.487 -4.56,6.554l0,0Z" style="fill:#ccbe28;"/></g><path d="M8.352,194.749l103.676,0" style="fill:none;stroke:#c22434;stroke-width:16.7px;"/><path d="M156.146,196.955l34.191,-0l0,-40.809" style="fill:none;stroke:#c22434;stroke-width:16.7px;"/><path d="M189.234,112.028l0,-103.676" style="fill:none;stroke:#c22434;stroke-width:16.7px;"/><path d="M418.249,11.661l0,103.676" style="fill:none;stroke:#c22434;stroke-width:16.7px;"/><path d="M416.043,159.455l0,34.191l40.809,0" style="fill:none;stroke:#c22434;stroke-width:16.7px;"/><path d="M500.97,192.543l103.676,0" style="fill:none;stroke:#c22434;stroke-width:16.7px;"/><path d="M604.646,380.558l-103.676,-0" style="fill:none;stroke:#c22434;stroke-width:16.7px;"/><path d="M456.852,378.352l-34.191,-0l-0,40.809" style="fill:none;stroke:#c22434;stroke-width:16.7px;"/><path d="M423.764,463.278l-0,103.677" style="fill:none;stroke:#c22434;stroke-width:16.7px;"/><path d="M194.749,563.646l0,-103.676" style="fill:none;stroke:#c22434;stroke-width:16.7px;"/><path d="M196.955,415.852l-0,-34.191l-40.809,-0" style="fill:none;stroke:#c22434;stroke-width:16.7px;"/><path d="M112.028,382.764l-103.676,-0" style="fill:none;stroke:#c22434;stroke-width:16.7px;"/></g></svg>