<?xml version="1.0" encoding="UTF-8" standalone="no"?><!DOCTYPE svg PUBLIC "-//W3C//DTD SVG 1.1//EN" "http://www.w3.org/Graphics/SVG/1.1/DTD/svg11.dtd"><svg width="100%" height="100%" viewBox="0 0 176 358" version="1.1" xmlns="http://www.w3.org/2000/svg" xmlns:xlink="http://www.w3.org/1999/xlink" xml:space="preserve" xmlns:serif="http://www.serif.com/" style="fill-rule:evenodd;clip-rule:evenodd;stroke-linecap:round;stroke-linejoin:round;stroke-miterlimit:1.5;"><path d="M44.764,131.258l0,-126.043" style="fill:none;stroke:#7c5e35;stroke-width:7.72px;"/><path d="M44.764,49.455l92.097,-0" style="fill:none;stroke:#7c5e35;stroke-width:7.72px;"/><path d="M136.472,133.516l0,-129.656" style="fill:none;stroke:#7c5e35;stroke-width:7.72px;"/><path d="M83.05,49.847c-0,-0 1.692,13.211 2.94,32.25c3.021,46.072 5.083,125.728 5.168,129.038c-0,0 -10.849,120.789 -10.849,120.789c-0.001,0.013 0.008,0.024 0.02,0.026c0.013,0.001 0.024,-0.008 0.026,-0.021l14.844,-120.517c0.009,-0.085 0.013,-0.171 0.011,-0.258c0,0 -1.447,-82.102 -0.388,-129.246c0.428,-19.076 1.551,-32.348 1.551,-32.348c-0.079,-3.676 -3.128,-6.597 -6.805,-6.518c-3.677,0.079 -6.597,3.128 -6.518,6.805Z"/><g><path d="M38.818,146.607l-0,65.295l101.47,-0l0,-65.295l-101.47,0" style="fill:#b69464;stroke:#b69464;stroke-width:30.78px;"/><path d="M22.914,143.695l137.337,-0" style="fill:none;stroke:#7b4b08;stroke-width:30.78px;"/><path d="M23.384,190.751l25.536,-0" style="fill:none;stroke:#7c5e35;stroke-width:7.72px;"/><path d="M49.29,191.676l0,-23.871l0,23.871Z" style="fill:none;stroke:#7c5e35;stroke-width:7.72px;"/><path d="M49.29,187.79l0,29.052" style="fill:none;stroke:#7c5e35;stroke-width:7.72px;"/><path d="M49.29,205.739l37.009,0" style="fill:none;stroke:#7c5e35;stroke-width:7.72px;"/><path d="M49.29,177.983l38.674,-0l0,28.496" style="fill:none;stroke:#7c5e35;stroke-width:7.72px;"/><path d="M87.779,190.751l25.536,-0" style="fill:none;stroke:#7c5e35;stroke-width:7.72px;"/><path d="M113.685,191.676l0,-23.871l0,23.871Z" style="fill:none;stroke:#7c5e35;stroke-width:7.72px;"/><path d="M113.685,187.79l0,29.052" style="fill:none;stroke:#7c5e35;stroke-width:7.72px;"/><path d="M113.685,205.739l37.009,0" style="fill:none;stroke:#7c5e35;stroke-width:7.72px;"/><path d="M113.685,177.983l38.674,-0l-0,28.496" style="fill:none;stroke:#7c5e35;stroke-width:7.72px;"/></g><path d="M35.576,230.911l3.705,86.377l106.617,0l-0,-93.967l-110.592,0l0.27,7.59Z" style="fill:#60523d;stroke:#5f7cc9;stroke-width:8.07px;"/><path d="M140.106,300.005l-1.005,46.883l-48.574,1.619l-50.192,0.694l-4.164,-23.593l6.708,-17.81l3.932,4.395c0,-0 19.43,-19.43 27.988,-18.273c8.558,1.156 36.546,21.048 44.41,14.572c7.864,-6.477 20.897,-8.487 20.897,-8.487Z" style="fill:#5f7cc9;stroke:#516baf;stroke-width:8.07px;"/><path d="M35.576,224.05l0,119.717" style="fill:none;stroke:#b69464;stroke-width:23.04px;"/><path d="M38.459,345.782l102.659,0" style="fill:none;stroke:#b69464;stroke-width:23.04px;"/><path d="M142.306,227.438l-0,115.2" style="fill:none;stroke:#b69464;stroke-width:23.04px;"/><path d="M11.52,223.501l149.769,-0.051" style="fill:none;stroke:#60523d;stroke-width:23.04px;"/></svg>